<svg xmlns="http://www.w3.org/2000/svg" viewBox="0 0 1600 900"
     id="scene.block" data-scene="scene.block" data-occlusion-line="600" data-times="day night" data-default-time="night" xmlns:c2pa="http://c2pa.org/manifest"><metadata><c2pa:manifest>AAAWgmp1bWIAAAAeanVtZGMycGEAEQAQgAAAqgA4m3EDYzJwYQAAABZcanVtYgAAAEdqdW1kYzJtYQARABCAAACqADibcQN1cm46YzJwYTpmMTFhY2UyMC1hYmFjLTQwZGQtODJiZS05YmRjNTBhNTBlYzYAAAADl2p1bWIAAAApanVtZGMyYXMAEQAQgAAAqgA4m3EDYzJwYS5hc3NlcnRpb25zAAAAALxqdW1iAAAARGp1bWRjYm9yABEAEIAAAKoAOJtxE2MycGEuaW5ncmVkaWVudC52MwAAAAAYYzJzaFHxkElndewcuefFD7G0GHwAAABwY2JvcqNpZGM6Zm9ybWF0bWltYWdlL3N2Zyt4bWxqaW5zdGFuY2VJRHgseG1wOmlpZDo3ODIyOWMyYy04MmVlLTQ4OWUtYjAxYy04ZWU0N2UxYmU5NzRscmVsYXRpb25zaGlwaHBhcmVudE9mAAAB4mp1bWIAAABBanVtZGNib3IAEQAQgAAAqgA4m3ETYzJwYS5hY3Rpb25zLnYyAAAAABhjMnNoMaP32zpY0Z7vdyzpfl8lDwAAAZljYm9yomdhY3Rpb25zgqJmYWN0aW9ua2MycGEub3BlbmVkanBhcmFtZXRlcnOha2luZ3JlZGllbnRzgaJjdXJseC1zZWxmI2p1bWJmPWMycGEuYXNzZXJ0aW9ucy9jMnBhLmluZ3JlZGllbnQudjNkaGFzaFggQzVRnIiTGOXD/FQhRGgy0EtW9pbaeOlOHfzRgv+JL6akZmFjdGlvbngdY29tLmFudGhyb3BpYy5jbGF1ZGUucHJvdmlkZWRqcGFyYW1ldGVyc6F4H2NvbS5hbnRocm9waWMub3JpZ2luLWNvbmZpZGVuY2VndW5rbm93bmtkZXNjcmlwdGlvbnhmQ2xhdWRlIHByb3ZpZGVkIHRoaXMgZmlsZSBhdCB0aGUgcmVxdWVzdCBvZiBhIHVzZXIgYW5kIG1heSBoYXZlIGNyZWF0ZWQgb3IgbW9kaWZpZWQgdGhlIGZpbGUgY29udGVudHMubXNvZnR3YXJlQWdlbnShZG5hbWVmQ2xhdWRlcmFsbEFjdGlvbnNJbmNsdWRlZPUAAADIanVtYgAAAEBqdW1kY2JvcgARABCAAACqADibcRNjMnBhLmhhc2guZGF0YQAAAAAYYzJzaD5HBDnwZrTEu3WExfNCqXoAAACAY2JvcqVjYWxnZnNoYTI1NmNwYWRNAAAAAAAAAAAAAAAAAGRoYXNoWCDbbHqXBeJH+yrAPfTFlmsIpmIRPss55UJ6A1aMAsz0L2RuYW1lbmp1bWJmIG1hbmlmZXN0amV4Y2x1c2lvbnOBomVzdGFydBj4Zmxlbmd0aBkeBAAAAj5qdW1iAAAAJ2p1bWRjMmNsABEAEIAAAKoAOJtxA2MycGEuY2xhaW0udjIAAAACD2Nib3KlY2FsZ2ZzaGEyNTZpc2lnbmF0dXJleE1zZWxmI2p1bWJmPS9jMnBhL3VybjpjMnBhOmYxMWFjZTIwLWFiYWMtNDBkZC04MmJlLTliZGM1MGE1MGVjNi9jMnBhLnNpZ25hdHVyZWppbnN0YW5jZUlEeCx4bXA6aWlkOjc3NzIzMDYxLTU1ZjUtNGEwNS1iMjIwLWNjYTRjYmJhNzRiY3JjcmVhdGVkX2Fzc2VydGlvbnODomN1cmx4LXNlbGYjanVtYmY9YzJwYS5hc3NlcnRpb25zL2MycGEuaW5ncmVkaWVudC52M2RoYXNoWCBDNVGciJMY5cP8VCFEaDLQS1b2ltp46U4d/NGC/4kvpqJjdXJseCpzZWxmI2p1bWJmPWMycGEuYXNzZXJ0aW9ucy9jMnBhLmFjdGlvbnMudjJkaGFzaFggHNM+cDhbQQ6GPkRyahSSeZRGB7OrR9loXrWM8hDq3LCiY3VybHgpc2VsZiNqdW1iZj1jMnBhLmFzc2VydGlvbnMvYzJwYS5oYXNoLmRhdGFkaGFzaFggzQRKg7HPHTAg+hwn7X2/KU29aYBg9inb3XkiNONJyLl0Y2xhaW1fZ2VuZXJhdG9yX2luZm+jZG5hbWVvQW50aHJvcGljIEZpbGVzZ3ZlcnNpb25lMS4wLjBrc3BlY1ZlcnNpb25lMi40LjAAABA4anVtYgAAAChqdW1kYzJjcwARABCAAACqADibcQNjMnBhLnNpZ25hdHVyZQAAABAIY2JvctKEWQISogEmGCFZAgowggIGMIIBjaADAgECAhRA5aAK7sI50L64g/oGQgU9Z1UTADAKBggqhkjOPQQDAzBJMRcwFQYDVQQKEw5BbnRocm9waWMsIFBCQzEuMCwGA1UEAxMlQW50aHJvcGljIENvbnRlbnQgQ3JlZGVudGlhbHMgUm9vdCBDQTAeFw0yNjA4MDcxODQzNTZaFw0yODA4MDYxOTQzNTZaMEQxFzAVBgNVBAoTDkFudGhyb3BpYywgUEJDMSkwJwYDVQQDEyBBbnRocm9waWMgQ2xhdWRlIENvbnRlbnQgU2lnbmluZzBZMBMGByqGSM49AgEGCCqGSM49AwEHA0IABJh6CmvLUBgFFNU0vUKlOVtE6djd17L5SuwX0LemFisBM3dkd/3cyjxFA3Qo5S46fX0/ihY0VZ7mfb9KF703t5OjWDBWMA4GA1UdDwEB/wQEAwIHgDAVBgNVHSUEDjAMBgorBgEEAYPoXgIBMAwGA1UdEwEB/wQCMAAwHwYDVR0jBBgwFoAUzlHiBIFOZFsj+OPEz5o+nMHXXMIwCgYIKoZIzj0EAwMDZwAwZAIwMXMdFJ4BetLLVY7ORuE9noqbbAZOZn/aArXyTwFAZfKrPzxF2vPoJNf1+UCdg1XGAjBwX1zd9WGqYkqmL5SFqw1QySjr1zJfpJM9+1rdDwSPLMOPOjKuiXjoU/pUUeG9RwmhY3BhZFkNngAAAAAAAAAAAAAAAAAAAAAAAAAAAAAAAAAAAAAAAAAAAAAAAAAAAAAAAAAAAAAAAAAAAAAAAAAAAAAAAAAAAAAAAAAAAAAAAAAAAAAAAAAAAAAAAAAAAAAAAAAAAAAAAAAAAAAAAAAAAAAAAAAAAAAAAAAAAAAAAAAAAAAAAAAAAAAAAAAAAAAAAAAAAAAAAAAAAAAAAAAAAAAAAAAAAAAAAAAAAAAAAAAAAAAAAAAAAAAAAAAAAAAAAAAAAAAAAAAAAAAAAAAAAAAAAAAAAAAAAAAAAAAAAAAAAAAAAAAAAAAAAAAAAAAAAAAAAAAAAAAAAAAAAAAAAAAAAAAAAAAAAAAAAAAAAAAAAAAAAAAAAAAAAAAAAAAAAAAAAAAAAAAAAAAAAAAAAAAAAAAAAAAAAAAAAAAAAAAAAAAAAAAAAAAAAAAAAAAAAAAAAAAAAAAAAAAAAAAAAAAAAAAAAAAAAAAAAAAAAAAAAAAAAAAAAAAAAAAAAAAAAAAAAAAAAAAAAAAAAAAAAAAAAAAAAAAAAAAAAAAAAAAAAAAAAAAAAAAAAAAAAAAAAAAAAAAAAAAAAAAAAAAAAAAAAAAAAAAAAAAAAAAAAAAAAAAAAAAAAAAAAAAAAAAAAAAAAAAAAAAAAAAAAAAAAAAAAAAAAAAAAAAAAAAAAAAAAAAAAAAAAAAAAAAAAAAAAAAAAAAAAAAAAAAAAAAAAAAAAAAAAAAAAAAAAAAAAAAAAAAAAAAAAAAAAAAAAAAAAAAAAAAAAAAAAAAAAAAAAAAAAAAAAAAAAAAAAAAAAAAAAAAAAAAAAAAAAAAAAAAAAAAAAAAAAAAAAAAAAAAAAAAAAAAAAAAAAAAAAAAAAAAAAAAAAAAAAAAAAAAAAAAAAAAAAAAAAAAAAAAAAAAAAAAAAAAAAAAAAAAAAAAAAAAAAAAAAAAAAAAAAAAAAAAAAAAAAAAAAAAAAAAAAAAAAAAAAAAAAAAAAAAAAAAAAAAAAAAAAAAAAAAAAAAAAAAAAAAAAAAAAAAAAAAAAAAAAAAAAAAAAAAAAAAAAAAAAAAAAAAAAAAAAAAAAAAAAAAAAAAAAAAAAAAAAAAAAAAAAAAAAAAAAAAAAAAAAAAAAAAAAAAAAAAAAAAAAAAAAAAAAAAAAAAAAAAAAAAAAAAAAAAAAAAAAAAAAAAAAAAAAAAAAAAAAAAAAAAAAAAAAAAAAAAAAAAAAAAAAAAAAAAAAAAAAAAAAAAAAAAAAAAAAAAAAAAAAAAAAAAAAAAAAAAAAAAAAAAAAAAAAAAAAAAAAAAAAAAAAAAAAAAAAAAAAAAAAAAAAAAAAAAAAAAAAAAAAAAAAAAAAAAAAAAAAAAAAAAAAAAAAAAAAAAAAAAAAAAAAAAAAAAAAAAAAAAAAAAAAAAAAAAAAAAAAAAAAAAAAAAAAAAAAAAAAAAAAAAAAAAAAAAAAAAAAAAAAAAAAAAAAAAAAAAAAAAAAAAAAAAAAAAAAAAAAAAAAAAAAAAAAAAAAAAAAAAAAAAAAAAAAAAAAAAAAAAAAAAAAAAAAAAAAAAAAAAAAAAAAAAAAAAAAAAAAAAAAAAAAAAAAAAAAAAAAAAAAAAAAAAAAAAAAAAAAAAAAAAAAAAAAAAAAAAAAAAAAAAAAAAAAAAAAAAAAAAAAAAAAAAAAAAAAAAAAAAAAAAAAAAAAAAAAAAAAAAAAAAAAAAAAAAAAAAAAAAAAAAAAAAAAAAAAAAAAAAAAAAAAAAAAAAAAAAAAAAAAAAAAAAAAAAAAAAAAAAAAAAAAAAAAAAAAAAAAAAAAAAAAAAAAAAAAAAAAAAAAAAAAAAAAAAAAAAAAAAAAAAAAAAAAAAAAAAAAAAAAAAAAAAAAAAAAAAAAAAAAAAAAAAAAAAAAAAAAAAAAAAAAAAAAAAAAAAAAAAAAAAAAAAAAAAAAAAAAAAAAAAAAAAAAAAAAAAAAAAAAAAAAAAAAAAAAAAAAAAAAAAAAAAAAAAAAAAAAAAAAAAAAAAAAAAAAAAAAAAAAAAAAAAAAAAAAAAAAAAAAAAAAAAAAAAAAAAAAAAAAAAAAAAAAAAAAAAAAAAAAAAAAAAAAAAAAAAAAAAAAAAAAAAAAAAAAAAAAAAAAAAAAAAAAAAAAAAAAAAAAAAAAAAAAAAAAAAAAAAAAAAAAAAAAAAAAAAAAAAAAAAAAAAAAAAAAAAAAAAAAAAAAAAAAAAAAAAAAAAAAAAAAAAAAAAAAAAAAAAAAAAAAAAAAAAAAAAAAAAAAAAAAAAAAAAAAAAAAAAAAAAAAAAAAAAAAAAAAAAAAAAAAAAAAAAAAAAAAAAAAAAAAAAAAAAAAAAAAAAAAAAAAAAAAAAAAAAAAAAAAAAAAAAAAAAAAAAAAAAAAAAAAAAAAAAAAAAAAAAAAAAAAAAAAAAAAAAAAAAAAAAAAAAAAAAAAAAAAAAAAAAAAAAAAAAAAAAAAAAAAAAAAAAAAAAAAAAAAAAAAAAAAAAAAAAAAAAAAAAAAAAAAAAAAAAAAAAAAAAAAAAAAAAAAAAAAAAAAAAAAAAAAAAAAAAAAAAAAAAAAAAAAAAAAAAAAAAAAAAAAAAAAAAAAAAAAAAAAAAAAAAAAAAAAAAAAAAAAAAAAAAAAAAAAAAAAAAAAAAAAAAAAAAAAAAAAAAAAAAAAAAAAAAAAAAAAAAAAAAAAAAAAAAAAAAAAAAAAAAAAAAAAAAAAAAAAAAAAAAAAAAAAAAAAAAAAAAAAAAAAAAAAAAAAAAAAAAAAAAAAAAAAAAAAAAAAAAAAAAAAAAAAAAAAAAAAAAAAAAAAAAAAAAAAAAAAAAAAAAAAAAAAAAAAAAAAAAAAAAAAAAAAAAAAAAAAAAAAAAAAAAAAAAAAAAAAAAAAAAAAAAAAAAAAAAAAAAAAAAAAAAAAAAAAAAAAAAAAAAAAAAAAAAAAAAAAAAAAAAAAAAAAAAAAAAAAAAAAAAAAAAAAAAAAAAAAAAAAAAAAAAAAAAAAAAAAAAAAAAAAAAAAAAAAAAAAAAAAAAAAAAAAAAAAAAAAAAAAAAAAAAAAAAAAAAAAAAAAAAAAAAAAAAAAAAAAAAAAAAAAAAAAAAAAAAAAAAAAAAAAAAAAAAAAAAAAAAAAAAAAAAAAAAAAAAAAAAAAAAAAAAAAAAAAAAAAAAAAAAAAAAAAAAAAAAAAAAAAAAAAAAAAAAAAAAAAAAAAAAAAAAAAAAAAAAAAAAAAAAAAAAAAAAAAAAAAAAAAAAAAAAAAAAAAAAAAAAAAAAAAAAAAAAAAAAAAAAAAAAAAAAAAAAAAAAAAAAAAAAAAAAAAAAAAAAAAAAAAAAAAAAAAAAAAAAAAAAAAAAAAAAAAAAAAAAAAAAAAAAAAAAAAAAAAAAAAAAAAAAAAAAAAAAAAAAAAAAAAAAAAAAAAAAAAAAAAAAAAAAAAAAAAAAAAAAAAAAAAAAAAAAAAAAAAAAAAAAAAAAAAAAAAAAAAAAAAAAAAAAAAAAAAAAAAAAAAAAAAAAAAAAAAAAAAAAAAAAAAAAAAAAAAAAAAAAAAAAAAAAAAAAAAAAAAAAAAAAAAAAAAAAAAAAAAAAAAAAAAAAAAAAAAAAAAAAAAAAAAAAAAAAAAAAAAAAAAAAAAAAAAAAAAAAAAAAAAAAAAAAAAAAAAAAAAAAAAAAAAAAAAAAAAAAAAAAAAAAAAAAAAAAAAAAAAAAAAAAAAAAAAAAAAAAAAAAAAAAAAAAAAAAAAAAAAAAAAAAAAAAAAAAAAAAAAAAAAAAAAAAAAAAAAAAAAAAAAAAAAAAAAAAAAAAAAAAAAAAAAAAAAAAAAAAAAAAAAAAAAAAAAAAAAAAAAAAAAAAAAAAAAAAAAAAAAAAAAAAAAAAAAAAAAAAAAAAAAAAAAAAAAAAAAAAAAAAAAAAAAAAAAAAAAAAAAAAAAAAAAAAAAAAAAAAAAAAAAAAAAAAAAAAAAAAAAAAAAAAAAAAAAAAAAAAAAAAAAAAAAAAAAAAAAAAAAAAAAAAAAAAAAAAAAAAAAAAAAAAAAAAAAAAAAAAAAAAAAAAAAAAAAAAAAAAAAAAAAAAAAAAAAAAAAAAAAAAAAAAAAAAAAAAAAAAAAAAAAAAAAAAAAAAAAAAAAAAAAAAAAAAAAAAAAAAAAAAAAAAAAAAAAAAAAAAAAAAAAAAAAAAAAAAAAAAAAAAAAAAAAAAAAAAAAAAAAAAAAAAAAAAAAAAAAAAAAAAAAAAAAAAAAAAAAAAAAAAAAAAAAAAAAAAAAAAAAAAAAAAAAAAAAAAAAAAAAAAAAAAAAAAAAAAAAAAAAAAAAAAAAAAAAAAAAAAAAAAAAAAAAAAAAAAAAAAAAAAAAAAAAAAAAAAAAAAAAAAAAAAAAAAAAAAAAAAAAAAAAAAAAAAAAAAAAAAAAAAAAAAAAAAAAAAAAAAAAAAAAAAAAAAAAAAAAAAAAAAAAAAAAAAAAAAAAAAAAAAAAAAAAAAAAAAAAAAAAAAAAAAAAAAAAAAAAAAAAAAAAAAAAAAAAAAAAAAAAAAAAAAAAAAAAAAAAAAAAAAAAAAAAAAAAAAAAAAAAAAAAAAAAAAAAAAAAAAAAAAAAAAAAAAAAAAAAAAAAAAAAAAAAAAAAAAAAAAAAAAAAAAAAAAAAAAAAAAAAAAAAAAAAAAAAAAAAAAAAAAAAPZYQII/Ret9SKBcc4vQsCMDFHlDNvfcM6+mFNGBh38dNNMyOLmB6KAtlLuUeZa1vSEX+e8xoq3zMZ94pSvo7TnJS8Q=</c2pa:manifest></metadata>
    <defs>
        <style>/* @tokens-begin */
            :root {
            /* line */
            --irx-line:          #241D19;
            --irx-line-soft:     #3B302A;
            --irx-shadow:        #2A231E;

            /* architecture */
            --irx-wall:          #5C6A5F;
            --irx-wall-dark:     #4E5A51;
            --irx-wall-pattern:  #556359;
            --irx-tile:          #B5A992;
            --irx-tile-alt:      #A49980;
            --irx-floor:         #5E4D3E;

            /* window */
            --irx-sky-high:      #334051;
            --irx-sky-mid:       #4D4656;
            --irx-sky-low:       #785A4F;
            --irx-outside-dark:  #2A333E;
            --irx-curtain:       #424E56;
            --irx-curtain-dark:  #38424A;

            /* joinery */
            --irx-cabinet:       #785D44;
            --irx-cabinet-dark:  #634C36;
            --irx-counter:       #947553;
            --irx-counter-edge:  #7B5F43;

            /* character */
            --irx-skin:          #A87A5A;
            --irx-skin-shade:    #875D42;
            --irx-skin-b:        #8E6244;
            --irx-skin-b-shade:  #6E4A32;
            --irx-lip-b:         #96604F;
            --irx-mouth-b:       #4A2C24;
            --irx-hair:          #41322A;
            --irx-hair-light:    #554136;
            --irx-hair-b:        #241A16;
            --irx-hair-b-light:  #3D2C24;

            /* wardrobe: home_casual */
            --irx-cloth:         #A8603F;
            --irx-cloth-dark:    #894C31;
            --irx-cloth-inner:   #D9CDBC;

            /* props */
            --irx-glass:         #BCC8C3;
            --irx-glass-dark:    #9AA8A2;
            --irx-highlight:     #FFFFFF;
            --irx-jacket:        #4F5A63;
            --irx-jacket-dark:   #3D464E;

            /* accent — neighbourhood district, warm light only */
            --irx-accent:        #FFC15E;
            --irx-accent-dim:    #C89A4E;
            --irx-lamp-warm:     #F2C77E;
            --irx-cool-spill:    #7E93A8;

            /* vignettes */
            --irx-vig-light:     #B3ABA0;
            --irx-vig-base:      #8C857C;
            --irx-vig-mid:       #635D56;
            --irx-vig-dark:      #3B3733;

            /* stroke weights */
            --irx-stroke-xheavy: 6.6;
            --irx-stroke-heavy:  5;
            --irx-stroke:        3.4;
            --irx-stroke-fine:   2.1;
            --irx-stroke-hair:   1.4;
            }
            /* @tokens-end */</style>
        <style data-time="day">.bl-sky { fill: var(--irx-glass); } .bl-conc { fill: var(--irx-glass); } .bl-concd { fill: var(--irx-glass-dark); } .bl-concp { fill: var(--irx-glass-dark); } .bl-g1 { fill: var(--irx-curtain-dark); } .bl-g2 { fill: var(--irx-curtain); } .bl-g3 { fill: var(--irx-outside-dark); } .bl-bal { fill: var(--irx-glass-dark); } .bl-baltop { fill: var(--irx-glass); } .bl-balface { fill: var(--irx-wall); } .bl-door { fill: var(--irx-cabinet); } .bl-doord { fill: var(--irx-cabinet-dark); } .bl-stain { fill: var(--irx-wall); } .bl-win { fill: var(--irx-outside-dark); } .bl-ln { stroke: var(--irx-line); fill: none; stroke-linecap: round; stroke-linejoin: round; } .bl-mul { stroke: var(--irx-glass-dark); fill: none; stroke-linecap: butt; } .bl-stroke-stain { stroke: var(--irx-wall); fill: none; }</style>
        <style data-time="night">.bl-sky { fill: var(--irx-outside-dark); } .bl-conc { fill: var(--irx-curtain); } .bl-concd { fill: var(--irx-outside-dark); } .bl-concp { fill: var(--irx-curtain-dark); } .bl-g1 { fill: var(--irx-outside-dark); } .bl-g2 { fill: var(--irx-curtain-dark); } .bl-g3 { fill: var(--irx-outside-dark); } .bl-bal { fill: var(--irx-curtain-dark); } .bl-baltop { fill: var(--irx-curtain); } .bl-balface { fill: var(--irx-outside-dark); } .bl-door { fill: var(--irx-cabinet-dark); } .bl-doord { fill: var(--irx-outside-dark); } .bl-stain { fill: var(--irx-jacket-dark); } .bl-win { fill: var(--irx-outside-dark); } .bl-ln { stroke: var(--irx-line); fill: none; stroke-linecap: round; stroke-linejoin: round; } .bl-mul { stroke: var(--irx-curtain-dark); fill: none; stroke-linecap: butt; } .bl-stroke-stain { stroke: var(--irx-jacket-dark); fill: none; }</style>
    </defs>
    <g id="background">
        <path id="bl-sky-r" class="bl-sky" d="M0 0 h1600 v300 h-1600 z"/>
        <path id="bl-roofs" class="bl-concd" d="M1060 300 h120 v-26 h90 v26 h150 v-18 h180 v44 h-540 z"/>
    </g>
    <g id="architecture">
        <path id="bl-main" class="bl-conc" d="M240 0 h820 v604 h-820 z"/>
        <path id="bl-main-roof" class="bl-concd" d="M240 0 h820 v36 h-820 z"/>
        <path id="bl-m-sp0" class="bl-concp" d="M240 36 h820 v36 h-820 z"/>
        <path id="bl-m-gl0" class="bl-win" d="M240 72 h820 v50 h-820 z"/>
        <path id="bl-m-w0-0" class="bl-g1" d="M252 76 h70 v42 h-70 z"/>
        <path id="bl-m-w0-1" class="bl-g3" d="M334 76 h70 v42 h-70 z"/>
        <path id="bl-m-w0-2" class="bl-g1" d="M416 76 h70 v42 h-70 z"/>
        <path id="bl-m-w0-3" class="bl-g3" d="M498 76 h70 v42 h-70 z"/>
        <path id="bl-m-w0-4" class="bl-g3" d="M580 76 h70 v42 h-70 z"/>
        <path id="bl-m-w0-5" class="bl-g1" d="M662 76 h70 v42 h-70 z"/>
        <path id="bl-m-w0-6" class="bl-g1" d="M744 76 h70 v42 h-70 z"/>
        <path id="bl-m-w0-7" class="bl-g1" d="M826 76 h70 v42 h-70 z"/>
        <path id="bl-m-w0-8" class="bl-g1" d="M908 76 h70 v42 h-70 z"/>
        <path id="bl-m-w0-9" class="bl-g3" d="M990 76 h70 v42 h-70 z"/>
        <path id="bl-m-mul0" class="bl-mul" stroke-width="3" d="M246 74 v46 M328 74 v46 M410 74 v46 M492 74 v46 M574 74 v46 M656 74 v46 M738 74 v46 M820 74 v46 M902 74 v46 M984 74 v46"/>
        <path id="bl-m-sp1" class="bl-concp" d="M240 128 h820 v36 h-820 z"/>
        <path id="bl-m-gl1" class="bl-win" d="M240 164 h820 v50 h-820 z"/>
        <path id="bl-m-w1-0" class="bl-g1" d="M252 168 h70 v42 h-70 z"/>
        <path id="bl-m-w1-1" class="bl-g2" d="M334 168 h70 v42 h-70 z"/>
        <path id="bl-m-w1-2" class="bl-g3" d="M416 168 h70 v42 h-70 z"/>
        <path id="bl-m-w1-3" class="bl-g2" d="M498 168 h70 v42 h-70 z"/>
        <path id="bl-m-w1-4" class="bl-g1" d="M580 168 h70 v42 h-70 z"/>
        <path id="bl-m-w1-5" class="bl-g3" d="M662 168 h70 v42 h-70 z"/>
        <path id="bl-m-w1-6" class="bl-g1" d="M744 168 h70 v42 h-70 z"/>
        <path id="bl-m-w1-7" class="bl-g3" d="M826 168 h70 v42 h-70 z"/>
        <path id="bl-m-w1-8" class="bl-g1" d="M908 168 h70 v42 h-70 z"/>
        <path id="bl-m-w1-9" class="bl-g3" d="M990 168 h70 v42 h-70 z"/>
        <path id="bl-m-mul1" class="bl-mul" stroke-width="3" d="M246 166 v46 M328 166 v46 M410 166 v46 M492 166 v46 M574 166 v46 M656 166 v46 M738 166 v46 M820 166 v46 M902 166 v46 M984 166 v46"/>
        <path id="bl-m-sp2" class="bl-concp" d="M240 220 h820 v36 h-820 z"/>
        <path id="bl-m-gl2" class="bl-win" d="M240 256 h820 v50 h-820 z"/>
        <path id="bl-m-w2-0" class="bl-g2" d="M252 260 h70 v42 h-70 z"/>
        <path id="bl-m-w2-1" class="bl-g3" d="M334 260 h70 v42 h-70 z"/>
        <path id="bl-m-w2-2" class="bl-g1" d="M416 260 h70 v42 h-70 z"/>
        <path id="bl-m-w2-3" class="bl-g2" d="M498 260 h70 v42 h-70 z"/>
        <path id="bl-m-w2-4" class="bl-g3" d="M580 260 h70 v42 h-70 z"/>
        <path id="bl-m-w2-5" class="bl-g3" d="M662 260 h70 v42 h-70 z"/>
        <path id="bl-m-w2-6" class="bl-g3" d="M744 260 h70 v42 h-70 z"/>
        <path id="bl-m-w2-7" class="bl-g2" d="M826 260 h70 v42 h-70 z"/>
        <path id="bl-m-w2-8" class="bl-g3" d="M908 260 h70 v42 h-70 z"/>
        <path id="bl-m-w2-9" class="bl-g3" d="M990 260 h70 v42 h-70 z"/>
        <path id="bl-m-mul2" class="bl-mul" stroke-width="3" d="M246 258 v46 M328 258 v46 M410 258 v46 M492 258 v46 M574 258 v46 M656 258 v46 M738 258 v46 M820 258 v46 M902 258 v46 M984 258 v46"/>
        <path id="bl-m-sp3" class="bl-concp" d="M240 312 h820 v36 h-820 z"/>
        <path id="bl-m-gl3" class="bl-win" d="M240 348 h820 v50 h-820 z"/>
        <path id="bl-m-w3-0" class="bl-g3" d="M252 352 h70 v42 h-70 z"/>
        <path id="bl-m-w3-1" class="bl-g3" d="M334 352 h70 v42 h-70 z"/>
        <path id="bl-m-w3-2" class="bl-g3" d="M416 352 h70 v42 h-70 z"/>
        <path id="bl-m-w3-3" class="bl-g2" d="M498 352 h70 v42 h-70 z"/>
        <path id="bl-m-w3-4" class="bl-g1" d="M580 352 h70 v42 h-70 z"/>
        <path id="bl-m-w3-5" class="bl-g3" d="M662 352 h70 v42 h-70 z"/>
        <path id="bl-m-w3-6" class="bl-g1" d="M744 352 h70 v42 h-70 z"/>
        <path id="bl-m-w3-7" class="bl-g3" d="M826 352 h70 v42 h-70 z"/>
        <path id="bl-m-w3-8" class="bl-g3" d="M908 352 h70 v42 h-70 z"/>
        <path id="bl-m-w3-9" class="bl-g1" d="M990 352 h70 v42 h-70 z"/>
        <path id="bl-m-mul3" class="bl-mul" stroke-width="3" d="M246 350 v46 M328 350 v46 M410 350 v46 M492 350 v46 M574 350 v46 M656 350 v46 M738 350 v46 M820 350 v46 M902 350 v46 M984 350 v46"/>
        <path id="bl-m-sp4" class="bl-concp" d="M240 404 h820 v36 h-820 z"/>
        <path id="bl-m-gl4" class="bl-win" d="M240 440 h820 v50 h-820 z"/>
        <path id="bl-m-w4-0" class="bl-g1" d="M252 444 h70 v42 h-70 z"/>
        <path id="bl-m-w4-1" class="bl-g3" d="M334 444 h70 v42 h-70 z"/>
        <path id="bl-m-w4-2" class="bl-g2" d="M416 444 h70 v42 h-70 z"/>
        <path id="bl-m-w4-3" class="bl-g1" d="M498 444 h70 v42 h-70 z"/>
        <path id="bl-m-w4-4" class="bl-g3" d="M580 444 h70 v42 h-70 z"/>
        <path id="bl-m-w4-5" class="bl-g3" d="M662 444 h70 v42 h-70 z"/>
        <path id="bl-m-w4-6" class="bl-g3" d="M744 444 h70 v42 h-70 z"/>
        <path id="bl-m-w4-7" class="bl-g2" d="M826 444 h70 v42 h-70 z"/>
        <path id="bl-m-w4-8" class="bl-g2" d="M908 444 h70 v42 h-70 z"/>
        <path id="bl-m-w4-9" class="bl-g2" d="M990 444 h70 v42 h-70 z"/>
        <path id="bl-m-mul4" class="bl-mul" stroke-width="3" d="M246 442 v46 M328 442 v46 M410 442 v46 M492 442 v46 M574 442 v46 M656 442 v46 M738 442 v46 M820 442 v46 M902 442 v46 M984 442 v46"/>
        <path id="bl-m-sp5" class="bl-concp" d="M240 496 h820 v36 h-820 z"/>
        <path id="bl-m-gl5" class="bl-win" d="M240 532 h820 v50 h-820 z"/>
        <path id="bl-m-w5-0" class="bl-g3" d="M252 536 h70 v42 h-70 z"/>
        <path id="bl-m-w5-1" class="bl-g2" d="M334 536 h70 v42 h-70 z"/>
        <path id="bl-m-w5-2" class="bl-g1" d="M416 536 h70 v42 h-70 z"/>
        <path id="bl-m-w5-3" class="bl-g1" d="M498 536 h70 v42 h-70 z"/>
        <path id="bl-m-w5-4" class="bl-g2" d="M580 536 h70 v42 h-70 z"/>
        <path id="bl-m-w5-5" class="bl-g2" d="M662 536 h70 v42 h-70 z"/>
        <path id="bl-m-w5-6" class="bl-g3" d="M744 536 h70 v42 h-70 z"/>
        <path id="bl-m-w5-7" class="bl-g3" d="M826 536 h70 v42 h-70 z"/>
        <path id="bl-m-w5-8" class="bl-g2" d="M908 536 h70 v42 h-70 z"/>
        <path id="bl-m-w5-9" class="bl-g3" d="M990 536 h70 v42 h-70 z"/>
        <path id="bl-m-mul5" class="bl-mul" stroke-width="3" d="M246 534 v46 M328 534 v46 M410 534 v46 M492 534 v46 M574 534 v46 M656 534 v46 M738 534 v46 M820 534 v46 M902 534 v46 M984 534 v46"/>
        <path id="bl-m-deck1" class="bl-g3" d="M240 164 h820 v50 h-820 z"/>
        <path id="bl-m-rail1" class="bl-concp" d="M240 194 h820 v10 h-820 z"/>
        <path id="bl-m-deck4" class="bl-g3" d="M240 440 h820 v50 h-820 z"/>
        <path id="bl-m-rail4" class="bl-concp" d="M240 470 h820 v10 h-820 z"/>
        <path id="bl-rw" class="bl-concd" d="M1060 0.0 L1600 -207.2 L1600 776.0 L1060 604.0 z"/>
        <path id="bl-r-sp0" class="bl-conc" d="M1060 36.0 L1600 -148.6 L1600 -90.0 L1060 72.0 z"/>
        <path id="bl-r-gl0" class="bl-win" d="M1060 72.0 L1600 -90.0 L1600 -8.6 L1060 122.0 z"/>
        <path id="bl-r-w0-0" class="bl-g1" d="M1092 66.4 L1179 40.9 L1179 88.7 L1092 110.0 z"/>
        <path id="bl-r-w0-1" class="bl-g3" d="M1200 34.5 L1287 9.0 L1287 62.1 L1200 83.4 z"/>
        <path id="bl-r-w0-2" class="bl-g1" d="M1330 -3.7 L1416 -29.3 L1416 30.1 L1330 51.4 z"/>
        <path id="bl-r-w0-3" class="bl-g1" d="M1481 -48.4 L1568 -73.9 L1568 -7.1 L1481 14.2 z"/>
        <path id="bl-r-mul0" class="bl-mul" stroke-width="3" d="M1071 71.8 L1071 116.4 M1179 39.8 L1179 89.9 M1308 1.3 L1308 58.1 M1460 -43.5 L1460 21.0 M1578 -78.7 L1578 -8.2"/>
        <path id="bl-r-sp1" class="bl-conc" d="M1060 128.0 L1600 1.2 L1600 59.8 L1060 164.0 z"/>
        <path id="bl-r-gl1" class="bl-win" d="M1060 164.0 L1600 59.8 L1600 141.2 L1060 214.0 z"/>
        <path id="bl-r-w1-0" class="bl-g3" d="M1092 161.9 L1179 145.6 L1179 193.4 L1092 205.5 z"/>
        <path id="bl-r-w1-1" class="bl-g1" d="M1200 141.6 L1287 125.3 L1287 178.4 L1200 190.4 z"/>
        <path id="bl-r-w1-2" class="bl-g2" d="M1330 117.1 L1416 100.9 L1416 160.3 L1330 172.3 z"/>
        <path id="bl-r-w1-3" class="bl-g2" d="M1481 88.7 L1568 72.4 L1568 139.2 L1481 151.2 z"/>
        <path id="bl-r-mul1" class="bl-mul" stroke-width="3" d="M1071 165.0 L1071 209.5 M1179 144.5 L1179 194.6 M1308 119.9 L1308 176.6 M1460 91.3 L1460 155.7 M1578 68.7 L1578 139.3"/>
        <path id="bl-r-sp2" class="bl-conc" d="M1060 220.0 L1600 150.9 L1600 209.5 L1060 256.0 z"/>
        <path id="bl-r-gl2" class="bl-win" d="M1060 256.0 L1600 209.5 L1600 290.9 L1060 306.0 z"/>
        <path id="bl-r-w2-0" class="bl-g1" d="M1092 257.4 L1179 250.3 L1179 298.1 L1092 300.9 z"/>
        <path id="bl-r-w2-1" class="bl-g1" d="M1200 248.6 L1287 241.5 L1287 294.6 L1200 297.4 z"/>
        <path id="bl-r-w2-2" class="bl-g2" d="M1330 238.0 L1416 231.0 L1416 290.4 L1330 293.2 z"/>
        <path id="bl-r-w2-3" class="bl-g3" d="M1481 225.7 L1568 218.7 L1568 285.5 L1481 288.3 z"/>
        <path id="bl-r-mul2" class="bl-mul" stroke-width="3" d="M1071 258.1 L1071 302.7 M1179 249.2 L1179 299.3 M1308 238.5 L1308 295.2 M1460 226.0 L1460 290.5 M1578 216.2 L1578 286.7"/>
        <path id="bl-r-sp3" class="bl-conc" d="M1060 312.0 L1600 300.7 L1600 359.3 L1060 348.0 z"/>
        <path id="bl-r-gl3" class="bl-win" d="M1060 348.0 L1600 359.3 L1600 440.7 L1060 398.0 z"/>
        <path id="bl-r-w3-0" class="bl-g1" d="M1092 352.8 L1179 355.0 L1179 402.8 L1092 396.4 z"/>
        <path id="bl-r-w3-1" class="bl-g3" d="M1200 355.6 L1287 357.8 L1287 410.9 L1200 404.4 z"/>
        <path id="bl-r-w3-2" class="bl-g2" d="M1330 358.9 L1416 361.1 L1416 420.5 L1330 414.1 z"/>
        <path id="bl-r-w3-3" class="bl-g1" d="M1481 362.8 L1568 365.0 L1568 431.8 L1481 425.3 z"/>
        <path id="bl-r-mul3" class="bl-mul" stroke-width="3" d="M1071 351.3 L1071 395.8 M1179 353.9 L1179 404.0 M1308 357.1 L1308 413.8 M1460 360.8 L1460 425.2 M1578 363.7 L1578 434.2"/>
        <path id="bl-r-sp4" class="bl-conc" d="M1060 404.0 L1600 450.5 L1600 509.1 L1060 440.0 z"/>
        <path id="bl-r-gl4" class="bl-win" d="M1060 440.0 L1600 509.1 L1600 590.5 L1060 490.0 z"/>
        <path id="bl-r-w4-0" class="bl-g2" d="M1092 448.3 L1179 459.7 L1179 507.5 L1092 491.9 z"/>
        <path id="bl-r-w4-1" class="bl-g3" d="M1200 462.6 L1287 474.1 L1287 527.1 L1200 511.5 z"/>
        <path id="bl-r-w4-2" class="bl-g2" d="M1330 479.8 L1416 491.2 L1416 550.6 L1330 535.0 z"/>
        <path id="bl-r-w4-3" class="bl-g1" d="M1481 499.8 L1568 511.3 L1568 578.1 L1481 562.4 z"/>
        <path id="bl-r-mul4" class="bl-mul" stroke-width="3" d="M1071 444.4 L1071 489.0 M1179 458.6 L1179 508.7 M1308 475.6 L1308 532.3 M1460 495.5 L1460 560.0 M1578 511.1 L1578 581.6"/>
        <path id="bl-r-sp5" class="bl-conc" d="M1060 496.0 L1600 600.2 L1600 658.8 L1060 532.0 z"/>
        <path id="bl-r-gl5" class="bl-win" d="M1060 532.0 L1600 658.8 L1600 740.2 L1060 582.0 z"/>
        <path id="bl-r-w5-0" class="bl-g2" d="M1092 543.8 L1179 564.5 L1179 612.3 L1092 587.3 z"/>
        <path id="bl-r-w5-1" class="bl-g3" d="M1200 569.6 L1287 590.3 L1287 643.4 L1200 618.5 z"/>
        <path id="bl-r-w5-2" class="bl-g1" d="M1330 600.7 L1416 621.4 L1416 680.8 L1330 655.9 z"/>
        <path id="bl-r-w5-3" class="bl-g2" d="M1481 636.9 L1568 657.6 L1568 724.4 L1481 699.5 z"/>
        <path id="bl-r-mul5" class="bl-mul" stroke-width="3" d="M1071 537.6 L1071 582.1 M1179 563.3 L1179 613.4 M1308 594.2 L1308 650.9 M1460 630.3 L1460 694.7 M1578 658.6 L1578 729.1"/>
        <path id="bl-near" class="bl-concp" d="M0 0 h240 v900 h-240 z"/>
        <path id="bl-near-edge" class="bl-ln" d="M240 0 v900" stroke-width="var(--irx-stroke-xheavy)"/>
        <path id="bl-door-rec" class="bl-concd" d="M8 352 h224 v548 h-224 z"/>
        <path id="bl-door-l" class="bl-conc" d="M4 336 h232 v22 h-232 z"/>
        <path id="bl-door" class="bl-door" d="M20 380 h200 v520 h-200 z"/>
        <path id="bl-door-sh" class="bl-doord" d="M20 380 h200 v18 h-200 z"/>
        <path id="bl-door-g" class="bl-g2" d="M44 408 h152 v104 h-152 z"/>
        <path id="bl-door-p" class="bl-doord" d="M44 560 h152 v210 h-152 z"/>
        <path id="bl-door-h" class="bl-ln" d="M182 636 v40" stroke-width="7"/>
        <path id="bl-door-step" class="bl-concd" d="M8 886 h224 v14 h-224 z"/>
        <path id="bl-door-f" class="bl-ln" stroke-width="var(--irx-stroke)" d="M20 380 h200 v520 h-200 z M44 408 h152 v104 h-152 z M44 560 h152 v210 h-152 z"/>
    </g>
    <g id="environmental_detail">
        <path id="bl-stain0" class="bl-stroke-stain" stroke-width="7" d="M280 72 v46 M384 72 v46 M488 72 v46 M592 72 v46 M696 72 v46 M800 72 v46 M904 72 v46 M1008 72 v46"/>
        <path id="bl-stain1" class="bl-stroke-stain" stroke-width="7" d="M280 164 v46 M384 164 v46 M488 164 v46 M592 164 v46 M696 164 v46 M800 164 v46 M904 164 v46 M1008 164 v46"/>
        <path id="bl-stain2" class="bl-stroke-stain" stroke-width="7" d="M280 256 v46 M384 256 v46 M488 256 v46 M592 256 v46 M696 256 v46 M800 256 v46 M904 256 v46 M1008 256 v46"/>
        <path id="bl-stain3" class="bl-stroke-stain" stroke-width="7" d="M280 348 v46 M384 348 v46 M488 348 v46 M592 348 v46 M696 348 v46 M800 348 v46 M904 348 v46 M1008 348 v46"/>
        <path id="bl-stain4" class="bl-stroke-stain" stroke-width="7" d="M280 440 v46 M384 440 v46 M488 440 v46 M592 440 v46 M696 440 v46 M800 440 v46 M904 440 v46 M1008 440 v46"/>
        <path id="bl-stain5" class="bl-stroke-stain" stroke-width="7" d="M280 532 v46 M384 532 v46 M488 532 v46 M592 532 v46 M696 532 v46 M800 532 v46 M904 532 v46 M1008 532 v46"/>
        <path id="bl-pipe" class="bl-ln" stroke-width="var(--irx-stroke)" d="M1030 36 v560 m-11 -420 h22 m-22 220 h22"/>
        <path id="bl-lit-m0-0" data-time="night" fill="var(--irx-accent)" d="M252 76 h70 v42 h-70 z"/>
        <path id="bl-lit-m0-2" data-time="night" fill="var(--irx-lamp-warm)" d="M416 76 h70 v42 h-70 z"/>
        <path id="bl-lit-m0-3" data-time="night" fill="var(--irx-lamp-warm)" d="M498 76 h70 v42 h-70 z"/>
        <path id="bl-lit-m0-6" data-time="night" fill="var(--irx-counter)" d="M744 76 h70 v42 h-70 z"/>
        <path id="bl-lit-m0-8" data-time="night" fill="var(--irx-accent)" d="M908 76 h70 v42 h-70 z"/>
        <path id="bl-lit-m0-9" data-time="night" fill="var(--irx-counter)" d="M990 76 h70 v42 h-70 z"/>
        <path id="bl-lit-r0-0" data-time="night" fill="var(--irx-cool-spill)" d="M1092 66.4 L1179 40.9 L1179 88.7 L1092 110.0 z"/>
        <path id="bl-lit-r0-2" data-time="night" fill="var(--irx-accent)" d="M1330 -3.7 L1416 -29.3 L1416 30.1 L1330 51.4 z"/>
        <path id="bl-lit-m1-0" data-time="night" fill="var(--irx-lamp-warm)" d="M252 168 h70 v42 h-70 z"/>
        <path id="bl-lit-m1-2" data-time="night" fill="var(--irx-lamp-warm)" d="M416 168 h70 v42 h-70 z"/>
        <path id="bl-lit-m1-6" data-time="night" fill="var(--irx-lamp-warm)" d="M744 168 h70 v42 h-70 z"/>
        <path id="bl-lit-m1-7" data-time="night" fill="var(--irx-counter)" d="M826 168 h70 v42 h-70 z"/>
        <path id="bl-lit-r1-0" data-time="night" fill="var(--irx-accent)" d="M1092 161.9 L1179 145.6 L1179 193.4 L1092 205.5 z"/>
        <path id="bl-lit-r1-1" data-time="night" fill="var(--irx-lamp-warm)" d="M1200 141.6 L1287 125.3 L1287 178.4 L1200 190.4 z"/>
        <path id="bl-lit-m2-1" data-time="night" fill="var(--irx-accent)" d="M334 260 h70 v42 h-70 z"/>
        <path id="bl-lit-m2-2" data-time="night" fill="var(--irx-glass)" d="M416 260 h70 v42 h-70 z"/>
        <path id="bl-lit-m2-4" data-time="night" fill="var(--irx-lamp-warm)" d="M580 260 h70 v42 h-70 z"/>
        <path id="bl-lit-m2-8" data-time="night" fill="var(--irx-accent)" d="M908 260 h70 v42 h-70 z"/>
        <path id="bl-lit-m2-9" data-time="night" fill="var(--irx-cool-spill)" d="M990 260 h70 v42 h-70 z"/>
        <path id="bl-lit-r2-0" data-time="night" fill="var(--irx-counter)" d="M1092 257.4 L1179 250.3 L1179 298.1 L1092 300.9 z"/>
        <path id="bl-lit-m3-0" data-time="night" fill="var(--irx-glass)" d="M252 352 h70 v42 h-70 z"/>
        <path id="bl-lit-m3-4" data-time="night" fill="var(--irx-glass)" d="M580 352 h70 v42 h-70 z"/>
        <path id="bl-lit-m3-8" data-time="night" fill="var(--irx-cool-spill)" d="M908 352 h70 v42 h-70 z"/>
        <path id="bl-lit-r3-3" data-time="night" fill="var(--irx-accent)" d="M1481 362.8 L1568 365.0 L1568 431.8 L1481 425.3 z"/>
        <path id="bl-lit-m4-4" data-time="night" fill="var(--irx-glass)" d="M580 444 h70 v42 h-70 z"/>
        <path id="bl-lit-m4-7" data-time="night" fill="var(--irx-counter)" d="M826 444 h70 v42 h-70 z"/>
        <path id="bl-lit-m4-9" data-time="night" fill="var(--irx-accent)" d="M990 444 h70 v42 h-70 z"/>
        <path id="bl-lit-m5-0" data-time="night" fill="var(--irx-accent)" d="M252 536 h70 v42 h-70 z"/>
        <path id="bl-lit-m5-1" data-time="night" fill="var(--irx-glass)" d="M334 536 h70 v42 h-70 z"/>
        <path id="bl-lit-m5-4" data-time="night" fill="var(--irx-lamp-warm)" d="M580 536 h70 v42 h-70 z"/>
        <path id="bl-lit-m5-6" data-time="night" fill="var(--irx-accent)" d="M744 536 h70 v42 h-70 z"/>
        <path id="bl-lit-m5-7" data-time="night" fill="var(--irx-cool-spill)" d="M826 536 h70 v42 h-70 z"/>
        <path id="bl-lit-r5-0" data-time="night" fill="var(--irx-accent)" d="M1092 543.8 L1179 564.5 L1179 612.3 L1092 587.3 z"/>
        <path id="bl-lit-r5-1" data-time="night" fill="var(--irx-cool-spill)" d="M1200 569.6 L1287 590.3 L1287 643.4 L1200 618.5 z"/>
        <path id="bl-lit-r5-2" data-time="night" fill="var(--irx-cool-spill)" d="M1330 600.7 L1416 621.4 L1416 680.8 L1330 655.9 z"/>
        <path id="bl-lit-r5-3" data-time="night" fill="var(--irx-accent)" d="M1481 636.9 L1568 657.6 L1568 724.4 L1481 699.5 z"/>
        <path id="bl-lit-door" data-time="night" fill="var(--irx-lamp-warm)" d="M44 408 h152 v104 h-152 z"/>
    </g>
    <g id="furniture">
        <path id="bl-bal-top" class="bl-baltop" d="M240 588 L1600 570 L1600 616 L240 626 z"/>
        <path id="bl-bal-face" class="bl-bal" d="M240 618 L1600 608 L1600 900 L240 900 z"/>
        <path id="bl-bal-band" class="bl-balface" d="M240 700 L1600 690 L1600 900 L240 900 z"/>
        <path id="bl-bal-j" class="bl-ln" stroke-width="var(--irx-stroke-fine)" d="M470 618 L470 900 M700 617 L700 900 M930 615 L930 900 M1160 613 L1160 900 M1390 611 L1390 900"/>
        <path id="bl-bal-e1" class="bl-ln" stroke-width="var(--irx-stroke-heavy)" d="M240 588 L1600 570"/>
        <path id="bl-bal-e2" class="bl-ln" stroke-width="var(--irx-stroke)" d="M240 626 L1600 616"/>
    </g>
    <g id="foreground">
        <path id="bl-fg-edge" class="bl-ln" stroke-width="var(--irx-stroke-heavy)" d="M240 0 v588"/>
    </g>
</svg>