<svg xmlns="http://www.w3.org/2000/svg" viewBox="0 0 1600 900" id="frame_14_avoidant_proposal" data-frame="frame_14_avoidant_proposal" data-mode="montage" data-render-block="render_blocks.json -&gt; act4_avoidant_proposal -&gt; default"><defs><style>
/* @tokens-begin */
:root {
  /* line */
  --irx-line:          #241D19;
  --irx-line-soft:     #3B302A;
  --irx-shadow:        #2A231E;

  /* architecture */
  --irx-wall:          #5C6A5F;
  --irx-wall-dark:     #4E5A51;
  --irx-wall-pattern:  #556359;
  --irx-tile:          #B5A992;
  --irx-tile-alt:      #A49980;
  --irx-floor:         #5E4D3E;

  /* window */
  --irx-sky-high:      #334051;
  --irx-sky-mid:       #4D4656;
  --irx-sky-low:       #785A4F;
  --irx-outside-dark:  #2A333E;
  --irx-curtain:       #424E56;
  --irx-curtain-dark:  #38424A;

  /* joinery */
  --irx-cabinet:       #785D44;
  --irx-cabinet-dark:  #634C36;
  --irx-counter:       #947553;
  --irx-counter-edge:  #7B5F43;

  /* character */
  --irx-skin:          #A87A5A;
  --irx-skin-shade:    #875D42;
  /* figure_b: same warm hazel family, one step deeper than figure_a */
  --irx-skin-b:        #8E6244;
  --irx-skin-b-shade:  #6E4A32;
  /* lips: figure_b skin with a pink shift. NOT the line colour - filling the
     mouth with --irx-line reads as black lips. */
  --irx-lip-b:         #96604F;
  --irx-mouth-b:       #4A2C24;
  --irx-hair:          #41322A;
  --irx-hair-light:    #554136;
  /* figure_b: 4C coil texture. near-black with a warm lift for the key light */
  --irx-hair-b:        #241A16;
  --irx-hair-b-light:  #3D2C24;

  /* wardrobe: home_casual */
  --irx-cloth:         #A8603F;
  --irx-cloth-dark:    #894C31;
  --irx-cloth-inner:   #D9CDBC;

  /* props */
  --irx-glass:         #BCC8C3;
  --irx-glass-dark:    #9AA8A2;
  --irx-highlight:     #FFFFFF;
  --irx-jacket:        #4F5A63;
  --irx-jacket-dark:   #3D464E;

  /* accent — neighbourhood district, warm light only */
  --irx-accent:        #FFC15E;
  --irx-accent-dim:    #C89A4E;
  --irx-lamp-warm:     #F2C77E;
  --irx-cool-spill:    #7E93A8;

  /* vignettes: montage panels only. Desaturated and reduced, so compressed
     time reads differently from present tense without a caption saying so.
     A vignette may use ONLY these, --irx-line and --irx-accent. Enforced by
     validate_assets.py rule 13. */
  --irx-vig-light:     #B3ABA0;
  --irx-vig-base:      #8C857C;
  --irx-vig-mid:       #635D56;
  --irx-vig-dark:      #3B3733;

  /* stroke weights */
  --irx-stroke-xheavy: 6.6;
  --irx-stroke-heavy:  5;
  --irx-stroke:        3.4;
  --irx-stroke-fine:   2.1;
  --irx-stroke-hair:   1.4;

  /* ==== career district ==== */
/* career: architecture */
--irx-career-wall:          #6E757E;
--irx-career-wall-dark:     #5C636B;
--irx-career-wall-pattern:  #666D76;
--irx-career-partition:     #58606A;
--irx-career-partition-dark:#4A5158;
--irx-career-floor:         #4A4F55;
/* career: window, evening. The office is lit; outside is not. */
--irx-career-sky-high:      #1E2836;
--irx-career-sky-mid:       #26303D;
--irx-career-sky-low:       #2E3444;
--irx-career-outside-dark:  #161C25;
/* career: joinery */
--irx-career-desk:          #8A8478;
--irx-career-desk-edge:     #6F6A60;
--irx-career-desk-dark:     #5E5A52;
--irx-career-metal:         #7A828A;
--irx-career-metal-dark:    #626A72;
/* career: light. Overhead fluorescent and one screen. */
--irx-career-fluoro:        #E8EDF2;
--irx-career-fluoro-dim:    #A8B2BC;
--irx-career-screen:        #6E93A8;
--irx-career-screen-glow:   #9FC4D8;
/* career: figure_c (Ray) */
--irx-career-skin-c:        #D9A886;
--irx-career-skin-c-shade:  #B98565;
--irx-career-hair-c:        #6E655C;
--irx-career-hair-c-light:  #8A8076;
--irx-career-lip-c:         #B57F66;
--irx-career-mouth-c:       #6B4436;
/* career: figure_d (Dana) */
--irx-career-skin-d:        #E0B294;
--irx-career-skin-d-shade:  #BE8D6F;
--irx-career-hair-d:        #4A4038;
--irx-career-hair-d-light:  #6A5C50;
/* career: wardrobe work */
--irx-career-shirt-c:       #9FA9B4;
--irx-career-shirt-c-dark:  #7E8894;
--irx-career-shirt-c-fold:  #6B7480;
/* career: wardrobe work_coat */
--irx-career-coat-c:        #4E5661;
--irx-career-coat-c-dark:   #3C434D;
--irx-career-coat-c-fold:   #5C6570;
/* career: accent. Matches district_theme.dart Career accent 0xFF7EA6DB. */
--irx-career-accent:        #7EA6DB;
--irx-career-accent-dim:    #5F7FA9;
}
/* @tokens-end */
.ln { stroke: var(--irx-line); fill: none; stroke-linecap: round; stroke-linejoin: round; }
.l  { fill: var(--irx-vig-light); }
.b  { fill: var(--irx-vig-base); }
.m  { fill: var(--irx-vig-mid); }
.d  { fill: var(--irx-vig-dark); }
.a  { fill: var(--irx-accent); }
</style></defs><g data-layer="montage"><rect x="0" y="0" width="1600" height="900" fill="var(--irx-vig-dark)" /><g transform="translate(92,140) scale(0.916667)"><g id="vignette">
  <path d="M0 0 h480 v600 h-480 z" class="d" />
  <path d="M70 40 h340 v520 h-340 z" class="m" />
  <path class="ln" stroke-width="4.0" d="M70 40 h340 v520 h-340 z" />
  <path d="M70 40 h340 v46 h-340 z" class="d" />
  <g class="l" opacity="0.85">
    <path d="M96 112 h150 v42 h-150 z" /><path d="M96 168 h190 v42 h-190 z" />
    <path d="M96 224 h120 v42 h-120 z" /><path d="M96 336 h170 v42 h-170 z" />
    <path d="M96 392 h140 v42 h-140 z" /><path d="M96 448 h200 v42 h-200 z" />
  </g>
  <g class="a" opacity="0.5">
    <path d="M238 280 h146 v42 h-146 z" /><path d="M266 504 h118 v42 h-118 z" />
  </g>
  <g class="ln" stroke-width="1.8" opacity="0.35">
    <path d="M112 133 h110" /><path d="M112 189 h150" /><path d="M112 245 h80" />
    <path d="M254 301 h106" /><path d="M112 357 h130" /><path d="M112 413 h100" />
    <path d="M112 469 h160" /><path d="M282 525 h78" />
  </g>
</g>
</g><rect x="92" y="140" width="440" height="550" fill="none" stroke="var(--irx-vig-light)" stroke-width="3" /><text x="312" y="738" text-anchor="middle" font-family="monospace" font-size="22" letter-spacing="1.6" fill="var(--irx-vig-light)">TWO WEEKS LATER</text><g transform="translate(580,140) scale(0.916667)"><g id="vignette">
  <path d="M0 0 h480 v600 h-480 z" class="m" />
  <g class="b">
    <path d="M40 60 h122 v122 h-122 z" /><path d="M180 60 h122 v122 h-122 z" />
    <path d="M320 60 h122 v122 h-122 z" />
    <path d="M40 200 h122 v122 h-122 z" /><path d="M320 200 h122 v122 h-122 z" />
    <path d="M40 340 h122 v122 h-122 z" /><path d="M180 340 h122 v122 h-122 z" />
    <path d="M320 340 h122 v122 h-122 z" />
  </g>
  
  <path d="M180 200 h122 v122 h-122 z" class="l" />
  <circle cx="241" cy="258" r="30" fill="none" stroke="var(--irx-accent)" stroke-width="7" />
  <circle cx="241" cy="228" r="9" class="a" />
  <g class="ln" stroke-width="2.6" opacity="0.7">
    <path d="M40 60 h122 v122 h-122 z" /><path d="M180 60 h122 v122 h-122 z" />
    <path d="M320 60 h122 v122 h-122 z" />
    <path d="M40 200 h122 v122 h-122 z" /><path d="M180 200 h122 v122 h-122 z" />
    <path d="M320 200 h122 v122 h-122 z" />
    <path d="M40 340 h122 v122 h-122 z" /><path d="M180 340 h122 v122 h-122 z" />
    <path d="M320 340 h122 v122 h-122 z" />
  </g>
  <g class="d" opacity="0.5">
    <path d="M62 130 q40 -40 78 0 v52 h-78 z" /><path d="M202 130 q40 -40 78 0 v52 h-78 z" />
    <path d="M342 130 q40 -40 78 0 v52 h-78 z" /><path d="M62 270 q40 -40 78 0 v52 h-78 z" />
    <path d="M342 270 q40 -40 78 0 v52 h-78 z" /><path d="M62 410 q40 -40 78 0 v52 h-78 z" />
    <path d="M202 410 q40 -40 78 0 v52 h-78 z" /><path d="M342 410 q40 -40 78 0 v52 h-78 z" />
  </g>
  <g class="ln" stroke-width="2.2" opacity="0.4">
    <path d="M40 500 h180" /><path d="M40 528 h120" />
  </g>
</g>
</g><rect x="580" y="140" width="440" height="550" fill="none" stroke="var(--irx-vig-light)" stroke-width="3" /><g transform="translate(1068,140) scale(0.916667)"><g id="vignette">
  <path d="M0 0 h480 v600 h-480 z" class="b" />
  <path d="M0 420 h480 v180 h-480 z" class="m" />
  <path class="ln" stroke-width="3.4" d="M0 420 q240 -6 480 0" />
  
  <path d="M50 90 h150 v220 h-150 z" class="d" />
  <path d="M50 90 h150 v96 h-150 z" class="a" opacity="0.22" />
  <path class="ln" stroke-width="3.4" d="M50 90 h150 v220 h-150 z" />
  <path class="ln" stroke-width="2.4" d="M125 92 v216" />
  <path class="ln" stroke-width="2.4" d="M52 200 h146" />
  
  <circle cx="300" cy="150" r="52" class="l" />
  <circle cx="300" cy="150" r="52" fill="none" stroke="var(--irx-line)" stroke-width="4.0" />
  <path class="ln" stroke-width="4.0" d="M300 150 v-30" />
  <path class="ln" stroke-width="3.4" d="M300 150 l24 12" />
  
  <path class="ln" stroke-width="3.4" d="M368 226 h72" />
  <path class="ln" stroke-width="4.0" d="M392 226 q-2 12 6 18" />
  <path d="M362 250 q42 -14 82 6 q14 74 8 150 q-46 14 -96 0 q-6 -78 6 -156 z" class="d" opacity="0.8" />
  <path class="ln" stroke-width="3.6" d="M362 250 q42 -14 82 6 q14 74 8 150 q-46 14 -96 0 q-6 -78 6 -156 z" />
</g>
</g><rect x="1068" y="140" width="440" height="550" fill="none" stroke="var(--irx-vig-light)" stroke-width="3" /><text x="1288" y="738" text-anchor="middle" font-family="monospace" font-size="22" letter-spacing="1.6" fill="var(--irx-vig-light)">THE FOLLOWING SATURDAY</text></g></svg>